<svg xmlns="http://www.w3.org/2000/svg" viewBox="0 0 900 1100" role="img" aria-label="Premium halal grocery counter placeholder">
  <defs>
    <linearGradient id="bg" x1="0" x2="1" y1="0" y2="1">
      <stop offset="0" stop-color="#123d2c"/>
      <stop offset="0.48" stop-color="#071a14"/>
      <stop offset="1" stop-color="#1a5138"/>
    </linearGradient>
    <radialGradient id="glow" cx="54%" cy="42%" r="58%">
      <stop offset="0" stop-color="#bdf4cf" stop-opacity=".44"/>
      <stop offset=".48" stop-color="#d9b765" stop-opacity=".17"/>
      <stop offset="1" stop-color="#06140f" stop-opacity="0"/>
    </radialGradient>
    <filter id="blur">
      <feGaussianBlur stdDeviation="24"/>
    </filter>
  </defs>
  <rect width="900" height="1100" fill="url(#bg)"/>
  <circle cx="470" cy="430" r="430" fill="url(#glow)"/>
  <g opacity=".35" filter="url(#blur)">
    <circle cx="140" cy="290" r="120" fill="#bdf4cf"/>
    <circle cx="770" cy="230" r="130" fill="#d9b765"/>
    <circle cx="720" cy="870" r="180" fill="#1fed91"/>
  </g>
  <g fill="none" stroke="#ffffff" stroke-opacity=".13" stroke-width="2">
    <path d="M0 210h900M0 380h900M0 550h900M0 720h900M0 890h900"/>
    <path d="M150 0v1100M330 0v1100M510 0v1100M690 0v1100"/>
  </g>
  <g transform="translate(105 315)">
    <rect x="0" y="0" width="690" height="430" rx="42" fill="#ffffff" fill-opacity=".1" stroke="#ffffff" stroke-opacity=".26"/>
    <rect x="48" y="64" width="594" height="170" rx="30" fill="#edfdf1" fill-opacity=".14"/>
    <path d="M80 182c72-70 154-82 244-36 104 53 189 29 260-55" stroke="#bdf4cf" stroke-width="16" stroke-linecap="round" fill="none" opacity=".72"/>
    <path d="M92 282h506" stroke="#d9b765" stroke-width="18" stroke-linecap="round" opacity=".74"/>
    <path d="M110 334h330" stroke="#ffffff" stroke-width="18" stroke-linecap="round" opacity=".34"/>
    <circle cx="546" cy="333" r="34" fill="#d9b765" opacity=".78"/>
  </g>
  <g transform="translate(105 805)" fill="#ffffff" fill-opacity=".72">
    <text font-family="Inter, Arial, sans-serif" font-size="36" font-weight="800">Fresh halal counter</text>
    <text y="54" font-family="Inter, Arial, sans-serif" font-size="24" font-weight="600" fill-opacity=".56">Replace with real store or product photography</text>
  </g>
</svg>
